<?xml version="1.0" standalone="no"?>
<!DOCTYPE svg PUBLIC "-//W3C//DTD SVG 20010904//EN"
 "http://www.w3.org/TR/2001/REC-SVG-20010904/DTD/svg10.dtd">
<svg version="1.0" xmlns="http://www.w3.org/2000/svg"
 width="740.000000pt" height="740.000000pt" viewBox="0 0 740.000000 740.000000"
 preserveAspectRatio="xMidYMid meet">

<g transform="translate(0.000000,740.000000) scale(0.100000,-0.100000)"
fill="white" stroke="none">
<path d="M3002 5153 c-22 -38 -136 -237 -254 -443 -118 -206 -301 -523 -405
-705 -426 -740 -998 -1733 -1020 -1770 -12 -22 -23 -43 -23 -47 0 -5 102 -8
228 -8 l227 0 61 108 c69 120 576 1003 969 1687 142 248 309 538 370 645 l112
195 44 2 44 3 280 -490 280 -490 229 0 c178 0 227 3 223 13 -3 6 -66 118 -141
247 -74 129 -249 434 -388 677 l-253 442 -272 1 -272 0 -39 -67z"/>
<path d="M3964 5178 c14 -24 65 -113 113 -198 l89 -155 515 -5 514 -5 73 -27
c203 -74 352 -228 414 -428 30 -97 32 -264 4 -355 -58 -193 -194 -347 -371
-422 -117 -49 -63 -47 -1245 -53 l-1115 -5 -86 -150 c-47 -82 -219 -383 -382
-668 -163 -284 -297 -519 -297 -522 0 -3 103 -5 228 -5 l228 0 37 68 c20 37
142 249 270 472 l233 405 570 2 569 3 270 -471 c148 -259 274 -473 280 -475 6
-3 110 -3 231 -2 l221 3 -268 465 c-148 256 -269 468 -269 473 0 4 75 7 168 7
266 0 424 33 592 122 382 203 597 610 550 1038 -48 437 -355 786 -795 903 -77
20 -105 21 -723 24 l-643 4 25 -43z"/>
</g>
</svg>
